<svg xmlns="http://www.w3.org/2000/svg" width="500" height="400" viewBox="0 0 500 400">
  <style>
    .primary { fill: #4e73df; }
    .secondary { fill: #224abe; }
    .accent { fill: #f8f9fc; }
    .dark { fill: #5a5c69; }
  </style>
  
  <!-- Background -->
  <rect x="0" y="0" width="500" height="400" fill="#ffffff" />
  
  <!-- Graduation Cap -->
  <g transform="translate(250, 150) scale(1.5)">
    <path class="primary" d="M-60,-20 L60,-20 L0,-50 Z" />
    <rect class="secondary" x="-60" y="-20" width="120" height="10" />
    <rect class="accent" x="-50" y="-10" width="100" height="30" rx="5" />
    <rect class="secondary" x="-5" y="20" width="10" height="30" />
    <circle class="primary" cx="0" cy="50" r="10" />
  </g>
  
  <!-- Books -->
  <g transform="translate(150, 250)">
    <rect class="primary" x="0" y="0" width="40" height="60" rx="2" />
    <rect class="accent" x="3" y="5" width="34" height="50" rx="1" />
    <rect class="dark" x="15" y="20" width="10" height="2" />
    <rect class="dark" x="10" y="25" width="20" height="2" />
    <rect class="dark" x="12" y="30" width="16" height="2" />
  </g>
  
  <g transform="translate(160, 240) rotate(-10)">
    <rect class="secondary" x="0" y="0" width="40" height="60" rx="2" />
    <rect class="accent" x="3" y="5" width="34" height="50" rx="1" />
    <rect class="dark" x="15" y="20" width="10" height="2" />
    <rect class="dark" x="10" y="25" width="20" height="2" />
    <rect class="dark" x="12" y="30" width="16" height="2" />
  </g>
  
  <!-- Computer/Tablet -->
  <g transform="translate(320, 250)">
    <rect class="dark" x="-40" y="-30" width="80" height="60" rx="5" />
    <rect class="accent" x="-35" y="-25" width="70" height="45" />
    <rect class="primary" x="-30" y="-20" width="60" height="5" />
    <rect class="secondary" x="-25" y="-10" width="50" height="5" />
    <rect class="primary" x="-20" y="0" width="40" height="5" />
    <rect class="secondary" x="-15" y="10" width="30" height="5" />
    <rect class="dark" x="-20" y="30" width="40" height="5" />
  </g>
  
  <!-- Connection Lines -->
  <path class="primary" stroke-width="3" stroke-dasharray="5,5" d="M200,250 Q250,200 300,250" stroke="#4e73df" fill="none" />
  
  <!-- Chat Bubbles -->
  <g transform="translate(380, 180)">
    <circle class="primary" cx="0" cy="0" r="15" />
    <circle class="secondary" cx="20" cy="-15" r="10" />
    <circle class="primary" cx="35" cy="-25" r="5" />
  </g>
  
  <g transform="translate(120, 180)">
    <circle class="secondary" cx="0" cy="0" r="15" />
    <circle class="primary" cx="-20" cy="-15" r="10" />
    <circle class="secondary" cx="-35" cy="-25" r="5" />
  </g>
</svg> 